<svg id="Layer_1" data-name="Layer 1" xmlns="http://www.w3.org/2000/svg" viewBox="0 0 500 500"><defs><style>.cls-1{fill:#102140;}.cls-2{fill:#fff;}</style></defs><circle class="cls-1" cx="250" cy="250" r="198.53"/><path class="cls-2" d="M286.2,183.89a82.12,82.12,0,0,0-73.71-46C167,137.92,130,174.73,130,220a81.21,81.21,0,0,0,7.85,35.08l-7.71,38.58a7,7,0,0,0,8.26,8.27l39.05-7.72a80.8,80.8,0,0,0,16.29,5.7C181.16,240.55,226.14,184.85,286.2,183.89Z"/><path class="cls-2" d="M362.2,315.08a80.87,80.87,0,0,0,3.52-8.68h-.26C383,254.86,346.09,200.68,291.57,198h0a82.06,82.06,0,1,0-3.94,164,81.05,81.05,0,0,0,35-7.85c42.77,8.45,39.43,7.85,40.42,7.85a7,7,0,0,0,6.89-8.41Z"/></svg>