<svg id="Layer_1" data-name="Layer 1" xmlns="http://www.w3.org/2000/svg" xmlns:xlink="http://www.w3.org/1999/xlink" viewBox="0 0 500 500"><defs><style>.cls-1{fill:none;}.cls-2{clip-path:url(#clip-path);}</style><clipPath id="clip-path"><rect class="cls-1" x="62.21" y="102.19" width="375.58" height="295.62"/></clipPath></defs><g class="cls-2"><path d="M398.57,180.63a39.22,39.22,0,1,0-39.23-39.22,39.21,39.21,0,0,0,39.23,39.22"/><path d="M398.57,287.32a39.22,39.22,0,1,0-39.23-39.22,39.2,39.2,0,0,0,39.23,39.22"/><path d="M398.57,397.81a39.22,39.22,0,1,0-39.23-39.22,39.21,39.21,0,0,0,39.23,39.22"/></g><rect x="62.21" y="119.14" width="251.81" height="40.74"/><rect x="62.21" y="227.72" width="251.81" height="40.74"/><rect x="62.21" y="336.31" width="251.81" height="40.74"/></svg>