<svg id="Layer_1" data-name="Layer 1" xmlns="http://www.w3.org/2000/svg" viewBox="0 0 500 500"><path d="M247.71,243.35c24,0,44.87-8.63,61.89-25.64s25.64-37.84,25.64-61.89S326.61,111,309.59,93.93,271.75,68.3,247.71,68.3s-44.87,8.62-61.89,25.64-25.64,37.83-25.64,61.88,8.63,44.87,25.64,61.89S223.66,243.35,247.71,243.35Z"/><path d="M400.86,347.74a216.49,216.49,0,0,0-2.94-23,182.54,182.54,0,0,0-5.65-23.08,113.83,113.83,0,0,0-9.49-21.53,81.46,81.46,0,0,0-14.31-18.66,63.26,63.26,0,0,0-20.56-12.91,70.91,70.91,0,0,0-26.25-4.75c-3.71,0-7.29,1.52-14.22,6-4.27,2.78-9.26,6-14.82,9.56-4.76,3-11.21,5.87-19.18,8.44a74.44,74.44,0,0,1-46.9,0c-8-2.57-14.41-5.41-19.17-8.44-5.51-3.53-10.5-6.74-14.83-9.56-6.92-4.51-10.51-6-14.22-6a70.82,70.82,0,0,0-26.24,4.75,63,63,0,0,0-20.56,12.92,81.12,81.12,0,0,0-14.31,18.65,114.47,114.47,0,0,0-9.49,21.53,180.87,180.87,0,0,0-5.64,23.08,213.29,213.29,0,0,0-3,23c-.48,6.95-.73,14.17-.73,21.46,0,19,6,34.32,17.93,45.65,11.74,11.17,27.28,16.84,46.18,16.84h175c18.9,0,34.43-5.66,46.18-16.84s17.93-26.68,17.93-45.66C401.59,361.88,401.35,354.66,400.86,347.74Z"/></svg>